# This file uses centimeters as units for non-parametric coordinates.

mtllib Spike.mtl
g default
v -0.085256 -0.500000 -0.082765
v -0.084533 -0.500000 0.087024
v -0.001601 0.500000 0.001760
v 0.084533 -0.500000 -0.082765
v 0.085256 -0.500000 0.087024
vt 0.894994 0.007784
vt 0.987158 0.007784
vt 0.987158 0.099938
vt 0.108868 0.005182
vt 0.008253 0.106217
vt 0.007823 0.005182
vt 0.986112 0.007196
vt 0.990294 0.989239
vt 0.008250 0.989239
vt 0.004068 0.007195
vt 0.002696 0.003881
vt 0.110614 0.003881
vt 0.002701 0.111794
vt 0.984855 0.009271
vt 0.984471 0.098502
vt 0.895622 0.009271
vn -0.996540 0.083007 0.004243
vn -0.996540 0.083007 0.004243
vn -0.996540 0.083007 0.004243
vn 0.000000 0.084225 -0.996447
vn 0.000000 0.084225 -0.996447
vn 0.000000 0.084225 -0.996447
vn 0.996271 0.086171 -0.004242
vn 0.996271 0.086171 -0.004242
vn 0.996271 0.086171 -0.004242
vn 0.000000 -1.000000 0.000000
vn 0.000000 -1.000000 0.000000
vn 0.000000 -1.000000 0.000000
vn 0.000000 -1.000000 0.000000
vn 0.000000 0.084956 0.996385
vn 0.000000 0.084956 0.996385
vn 0.000000 0.084956 0.996385
s off
g Spike
usemtl initialShadingGroup
f 1/1/1 2/2/2 3/3/3
f 1/14/4 3/15/5 4/16/6
f 4/4/7 3/5/8 5/6/9
f 4/7/10 5/8/11 2/9/12 1/10/13
f 2/11/14 5/12/15 3/13/16
